<?xml version="1.0" encoding="utf-8"?>
<!DOCTYPE svg PUBLIC "-//W3C//DTD SVG 1.1//EN" "http://www.w3.org/Graphics/SVG/1.1/DTD/svg11.dtd">
<svg version="1.1" xmlns="http://www.w3.org/2000/svg" xmlns:xlink="http://www.w3.org/1999/xlink">
    <defs>
        <style>
            g {
              display: none;
            }
            g:target {
              display: inline;
            }
        </style>
        <symbol id="chevron-right-symbol" viewBox="0 0 128 160">
            <path fill="#636c72" d="M12.688 0l64 64-64 64h22.625l58.344-58.344L99.313 64l-5.656-5.656L35.313 0H12.688z"/>
        </symbol>
        <symbol id="angle-double-right-symbol" viewBox="0 0 32 40" class="icon angle-double-right">
            <polygon points="12.8 29.4 24.6 16 12.8 2.6 15.1 0.6 28.6 16 15.1 31.4 "/><polygon points="3.4 29.4 15.2 16 3.4 2.6 5.7 0.6 19.2 16 5.7 31.4 "/>
        </symbol>
        <symbol id="step-backward-symbol" viewBox="0 0 32 32" class="icon step-backward">
            <path fill="#888" d="M4 28V4h4v11L18 5v10L28 5v22L18 17v10L8 17v11z"/>
        </symbol>
        <symbol id="arrow-left-symbol" viewBox="0 0 32 32" class="icon arrow-left">
            <path fill="#888" d="M18 5v10L28 5v22L18 17v10L7 16z"/>
        </symbol>
        <symbol id="arrow-right-symbol" viewBox="0 0 32 32" class="icon arrow-right">
            <path fill="#888" d="M16 27V17L6 27V5l10 10V5l11 11z"/>
        </symbol>
        <symbol id="step-forward-symbol" viewBox="0 0 32 32" class="icon step-forward">
            <path fill="#888" d="M28 4v24h-4V17L14 27V17L4 27V5l10 10V5l10 10V4z"/>
        </symbol>
        <symbol id="quote-right-symbol" viewBox="0 0 100 125">
            <path d="M85.217 16.341H63.696c-5.403 0-9.783 4.38-9.783 9.784v21.52c0 5.404 4.38 9.784 9.783 9.784h17.608v1.311c0 6.189-5.047 11.226-11.25 11.226-3.783 0-6.849 3.065-6.849 6.848s3.065 6.848 6.849 6.848C83.81 83.659 95 72.479 95 58.738V26.125c0-5.404-4.38-9.784-9.783-9.784zm-48.914 0h-21.52C9.38 16.341 5 20.721 5 26.125v21.52c0 5.404 4.38 9.784 9.784 9.784h17.607v1.311c0 6.189-5.047 11.226-11.25 11.226-3.782 0-6.848 3.065-6.848 6.848s3.066 6.848 6.848 6.848c13.755 0 24.946-11.18 24.946-24.921V26.125c0-5.404-4.38-9.784-9.784-9.784z"/>
        </symbol>
        <symbol id="facebook">
          <path d="M19 6h5V0h-5c-3.86 0-7 3.14-7 7v3H8v6h4v16h6V16h5l1-6h-6V7c0-.542.458-1 1-1z"/>
        </symbol>
        <symbol id="twitter">
          <path d="M32 7.075c-1.175.525-2.444.875-3.769 1.031 1.356-.813 2.394-2.1 2.887-3.631-1.269.75-2.675 1.3-4.169 1.594C25.749 4.794 24.043 4 22.155 4c-3.625 0-6.563 2.938-6.563 6.563 0 .512.056 1.012.169 1.494-5.456-.275-10.294-2.888-13.531-6.862-.563.969-.887 2.1-.887 3.3 0 2.275 1.156 4.287 2.919 5.463-1.075-.031-2.087-.331-2.975-.819v.081c0 3.181 2.263 5.838 5.269 6.437-.55.15-1.131.231-1.731.231-.425 0-.831-.044-1.237-.119.838 2.606 3.263 4.506 6.131 4.563-2.25 1.762-5.075 2.813-8.156 2.813-.531 0-1.05-.031-1.569-.094 2.913 1.869 6.362 2.95 10.069 2.95 12.075 0 18.681-10.006 18.681-18.681 0-.287-.006-.569-.019-.85 1.281-.919 2.394-2.075 3.275-3.394z"/>
        </symbol>
        <symbol id="patreon" fill="none" fill-rule="evenodd">
          <path fill="#FFFFFF" d="M64.1102,0.1004 C44.259,0.1004 28.1086,16.2486 28.1086,36.0986 C28.1086,55.8884 44.259,71.989 64.1102,71.989 C83.9,71.989 100,55.8884 100,36.0986 C100,16.2486 83.9,0.1004 64.1102,0.1004"/><polygon fill="#F96854" points=".012 95.988 17.59 95.988 17.59 .1 .012 .1"/>
        </symbol>
    </defs>
    <g id="chevron-right">
        <use xlink:href="#chevron-right-symbol"/>
    </g>
    <g id="quote-right">
        <use xlink:href="#quote-right-symbol"/>
    </g>
    <g id="angle-double-right">
        <use xlink:href="#angle-double-right-symbol"/>
    </g>
    <g id="step-backward">
        <use xlink:href="#step-backward-symbol"/>
    </g>
    <g id="arrow-left">
        <use xlink:href="#arrow-left-symbol"/>
    </g>
    <g id="arrow-right">
        <use xlink:href="#arrow-right-symbol"/>
    </g>
    <g id="step-forward">
        <use xlink:href="#step-forward-symbol"/>
    </g>
</svg>