<svg xmlns="http://www.w3.org/2000/svg" viewBox="0 0 100 125"><path d="M85.217 16.341H63.696c-5.403 0-9.783 4.38-9.783 9.784v21.52c0 5.404 4.38 9.784 9.783 9.784h17.608v1.311c0 6.189-5.047 11.226-11.25 11.226-3.783 0-6.849 3.065-6.849 6.848s3.065 6.848 6.849 6.848C83.81 83.659 95 72.479 95 58.738V26.125c0-5.404-4.38-9.784-9.783-9.784zm-48.914 0h-21.52C9.38 16.341 5 20.721 5 26.125v21.52c0 5.404 4.38 9.784 9.784 9.784h17.607v1.311c0 6.189-5.047 11.226-11.25 11.226-3.782 0-6.848 3.065-6.848 6.848s3.066 6.848 6.848 6.848c13.755 0 24.946-11.18 24.946-24.921V26.125c0-5.404-4.38-9.784-9.784-9.784z"/></svg>